<?xml version="1.0" standalone="no"?>
<!DOCTYPE svg PUBLIC "-//W3C//DTD SVG 20010904//EN"
 "http://www.w3.org/TR/2001/REC-SVG-20010904/DTD/svg10.dtd">
<svg version="1.0" xmlns="http://www.w3.org/2000/svg"
 width="1016.000000pt" height="1016.000000pt" viewBox="0 0 1016.000000 1016.000000"
 preserveAspectRatio="xMidYMid meet">
<metadata>
Created by potrace 1.11, written by Peter Selinger 2001-2013
</metadata>
<g transform="translate(0.000000,1016.000000) scale(0.100000,-0.100000)"
fill="#000000" stroke="none">
<path d="M4750 10019 c-542 -37 -1121 -176 -1615 -389 -174 -75 -230 -104
-232 -120 -19 -182 -40 -420 -88 -970 -8 -96 -19 -224 -25 -285 -13 -149 -37
-499 -50 -730 -5 -104 -12 -221 -15 -260 -3 -38 -8 -128 -10 -200 -3 -71 -10
-238 -16 -370 -11 -234 -7 -1618 7 -2488 l6 -359 87 -146 c48 -81 141 -237
207 -347 65 -110 127 -213 136 -230 32 -55 214 -419 231 -460 8 -22 35 -85 57
-140 100 -240 200 -546 291 -895 22 -85 51 -195 64 -245 13 -49 31 -116 39
-147 9 -32 22 -82 30 -110 47 -172 107 -365 212 -680 l78 -237 51 -11 c195
-39 496 -69 770 -76 702 -19 1419 117 2065 393 186 80 198 87 211 135 14 53
37 126 48 153 5 11 16 43 24 70 9 28 45 136 82 240 37 105 75 215 85 245 10
30 28 80 39 110 11 30 40 111 64 180 25 69 63 175 85 235 22 61 52 144 67 185
14 41 30 84 35 95 40 91 345 981 420 1225 18 58 36 116 41 130 10 30 92 327
107 390 116 476 139 803 81 1135 -47 273 -135 538 -336 1015 -36 85 -76 179
-89 208 -13 29 -24 55 -24 57 0 2 -11 28 -24 57 -43 95 -64 142 -104 233 -22
50 -51 116 -66 148 -46 101 -77 170 -121 267 -24 52 -63 138 -88 190 -25 52
-63 133 -85 180 -22 47 -77 162 -122 255 -45 94 -97 202 -115 240 -19 39 -88
182 -154 319 -67 137 -121 250 -121 251 0 2 -36 79 -81 171 -86 179 -149 311
-219 459 -357 754 -368 774 -405 790 -49 21 -377 82 -555 104 -317 40 -657 50
-960 30z m130 -490 c34 -16 81 -52 122 -94 80 -80 246 -297 388 -508 29 -44
134 -193 170 -242 263 -358 420 -555 604 -759 60 -67 129 -146 155 -176 25
-30 54 -64 65 -75 16 -17 173 -226 255 -340 84 -116 232 -371 339 -585 93
-185 267 -587 303 -700 4 -14 29 -83 54 -155 50 -138 122 -350 136 -400 4 -16
12 -46 18 -65 94 -333 121 -541 121 -930 0 -291 -18 -592 -51 -840 -29 -221
-72 -351 -235 -710 -94 -207 -430 -868 -584 -1150 -40 -74 -80 -148 -89 -165
-14 -29 -164 -298 -211 -380 -13 -22 -37 -65 -53 -95 -82 -148 -262 -440 -333
-541 -73 -104 -106 -134 -181 -164 -132 -53 -266 -67 -373 -41 -111 28 -150
47 -215 109 -50 47 -83 99 -205 312 -38 68 -152 278 -214 398 -37 71 -90 167
-117 214 -27 47 -49 87 -49 89 0 2 -29 52 -64 111 -35 59 -103 176 -151 258
-49 83 -120 202 -158 265 -38 63 -77 129 -87 145 -24 42 -145 243 -295 490
-141 232 -308 517 -375 640 -24 44 -61 112 -82 150 -153 279 -322 647 -346
755 -6 25 -15 65 -21 90 -66 289 -57 940 19 1505 5 39 14 111 20 160 26 219
144 974 200 1283 6 28 14 76 19 105 103 567 183 817 349 1092 66 109 121 186
345 485 294 392 433 494 662 487 71 -2 101 -8 145 -28z"/>
<path d="M4615 9368 c-195 -139 -605 -709 -826 -1148 -86 -173 -109 -241 -119
-368 -11 -131 -38 -323 -66 -477 -3 -16 -9 -57 -14 -90 -21 -147 -114 -648
-166 -900 -19 -93 -39 -192 -44 -220 -5 -27 -15 -84 -23 -125 -9 -41 -20 -106
-27 -145 -6 -38 -13 -83 -16 -100 -75 -429 -72 -750 11 -1240 69 -411 230
-738 800 -1625 71 -111 115 -181 115 -184 0 -2 31 -53 68 -113 65 -103 315
-514 352 -579 10 -17 38 -64 63 -105 64 -107 298 -513 340 -589 68 -127 115
-217 191 -365 160 -311 247 -406 370 -405 43 1 130 21 142 33 4 4 15 7 24 7
17 0 99 81 142 140 50 69 182 295 283 485 26 50 62 117 80 150 30 56 82 155
225 430 76 145 333 652 507 995 77 152 154 312 173 355 220 529 278 1279 149
1940 -43 217 -83 353 -201 675 -24 66 -37 99 -49 122 -5 10 -9 22 -9 28 0 31
-229 531 -321 700 -106 195 -126 231 -199 350 -209 342 -366 554 -656 886 -82
93 -169 194 -194 224 -25 30 -61 73 -80 95 -32 36 -101 119 -140 169 -8 10
-27 33 -41 50 -14 17 -61 77 -105 134 -195 255 -194 254 -194 210 0 -25 24
-215 41 -316 28 -181 96 -393 167 -527 15 -27 146 -210 293 -405 284 -381 286
-383 503 -685 528 -737 797 -1170 878 -1415 83 -250 112 -446 111 -770 0 -309
-22 -507 -95 -870 -17 -84 -93 -386 -118 -465 -83 -270 -193 -584 -245 -700
-7 -16 -28 -66 -45 -110 -33 -85 -36 -91 -98 -225 -21 -47 -52 -114 -67 -150
-16 -36 -77 -160 -135 -275 -277 -547 -432 -745 -581 -745 -72 0 -144 68 -208
196 -64 128 -164 443 -223 704 -25 111 -102 424 -129 520 -11 41 -29 108 -40
148 -11 40 -26 92 -33 115 -8 23 -29 89 -46 147 -50 163 -175 523 -235 675
-44 113 -134 332 -156 383 -12 26 -27 61 -34 77 -20 46 -62 140 -113 250 -46
100 -333 672 -536 1068 l-106 208 4 62 c3 34 14 238 26 452 19 363 33 595 46
740 6 77 42 308 56 360 29 117 64 228 101 325 23 61 39 98 107 245 150 324
208 467 261 650 16 55 29 122 29 150 0 66 24 174 48 221 26 51 87 108 136 128
54 22 170 20 293 -5 57 -12 106 -19 110 -15 4 3 -3 16 -14 29 -11 12 -60 78
-109 147 -134 189 -257 300 -328 300 -17 0 -44 -10 -61 -22z"/>
<path d="M4816 8665 c-26 -54 -45 -112 -72 -220 -23 -93 -93 -314 -113 -360
-5 -11 -24 -58 -42 -105 -32 -84 -130 -290 -202 -422 -91 -169 -156 -405 -196
-708 -18 -139 -21 -164 -41 -420 -11 -140 -22 -282 -26 -315 -3 -33 -11 -132
-18 -220 l-13 -160 270 -545 c310 -627 467 -950 467 -964 0 -2 18 -43 40 -90
22 -47 40 -88 40 -90 0 -3 11 -29 24 -58 30 -66 156 -374 166 -408 5 -14 22
-63 40 -110 36 -97 161 -472 180 -540 6 -25 16 -53 21 -62 5 -10 9 -26 9 -35
0 -10 7 -37 15 -59 14 -40 65 -230 125 -459 16 -60 38 -146 50 -190 12 -44 32
-120 45 -170 116 -439 175 -585 240 -585 22 0 53 43 124 170 44 80 285 563
346 695 21 44 55 118 77 165 98 210 195 434 257 595 24 61 47 119 52 130 23
54 83 239 100 312 21 88 15 128 -19 121 -37 -7 -86 -88 -221 -368 -38 -80 -82
-165 -97 -190 -110 -186 -223 -286 -347 -310 -77 -14 -196 0 -264 32 -119 56
-305 341 -475 728 -9 19 -25 55 -36 80 -30 68 -132 318 -152 375 -10 28 -32
88 -50 135 -26 73 -173 515 -200 605 -55 183 -141 512 -170 648 -37 169 -68
331 -79 407 -6 41 -16 109 -23 150 -6 41 -12 149 -12 240 -1 150 1 172 24 240
81 247 296 558 496 719 44 35 145 81 179 81 109 0 259 -80 391 -206 184 -178
282 -355 304 -544 23 -203 119 -466 334 -912 189 -393 287 -716 346 -1143 37
-261 78 -386 118 -353 33 28 58 115 94 318 19 114 23 169 23 360 0 196 -3 239
-23 335 -13 61 -27 124 -32 140 -75 234 -117 337 -222 544 -101 197 -196 354
-374 618 -310 459 -723 1008 -926 1232 -84 92 -166 223 -221 351 -46 109 -55
136 -121 370 -88 311 -120 402 -154 443 -22 26 -38 21 -56 -18z"/>
<path d="M5358 6847 c-70 -27 -130 -69 -228 -163 -105 -101 -195 -223 -250
-339 -33 -69 -34 -72 -33 -205 1 -168 16 -286 88 -651 22 -111 131 -565 155
-644 5 -16 19 -64 31 -105 66 -228 129 -425 199 -620 23 -63 45 -126 49 -140
8 -23 86 -218 116 -285 7 -16 19 -46 28 -65 8 -19 24 -55 35 -80 11 -25 30
-67 42 -95 54 -122 165 -335 203 -390 57 -80 111 -117 179 -123 100 -8 174 27
241 113 51 67 169 307 207 424 165 500 97 1140 -183 1731 -25 52 -69 147 -99
210 -30 63 -74 165 -97 225 -24 61 -47 119 -52 130 -21 46 -111 334 -134 428
-44 178 -84 318 -97 332 -4 5 -8 15 -8 23 0 25 -72 161 -107 202 -51 60 -109
90 -184 95 -41 4 -77 1 -101 -8z"/>
<path d="M6602 9784 c15 -25 115 -241 150 -324 22 -52 51 -120 65 -150 14 -30
36 -80 50 -110 14 -30 40 -88 59 -128 19 -41 34 -75 34 -77 0 -2 24 -54 54
-117 29 -62 81 -171 114 -243 33 -71 87 -186 120 -255 33 -69 75 -159 95 -200
19 -41 92 -192 162 -335 134 -275 206 -425 248 -515 14 -30 48 -104 77 -165
28 -60 61 -130 72 -155 11 -25 33 -72 48 -105 24 -52 55 -121 172 -385 21 -46
41 -93 63 -145 7 -16 22 -51 34 -77 11 -26 21 -50 21 -53 0 -3 9 -24 19 -48
113 -244 283 -749 330 -982 50 -242 55 -290 56 -545 0 -286 -10 -379 -80 -725
-33 -160 -136 -541 -195 -715 -10 -30 -50 -152 -89 -270 -73 -223 -135 -403
-215 -625 -26 -71 -56 -155 -66 -185 -10 -30 -33 -93 -50 -140 -17 -47 -40
-110 -50 -140 -10 -30 -31 -89 -45 -130 -15 -41 -44 -124 -65 -185 -21 -60
-62 -175 -90 -255 -29 -80 -56 -156 -60 -170 -17 -51 -118 -336 -126 -354 -11
-28 8 -19 164 77 191 117 191 117 268 292 36 83 71 164 79 180 41 90 211 481
312 715 67 157 69 161 92 212 11 26 21 50 21 53 0 2 11 28 24 57 13 29 41 94
61 143 20 50 48 114 61 143 13 29 24 55 24 57 0 3 9 25 20 50 47 106 61 139
130 310 123 304 202 532 243 700 50 199 63 329 76 720 13 362 1 548 -47 725
-29 107 -111 283 -260 560 -166 307 -259 494 -407 825 -47 103 -155 355 -155
360 0 3 -9 25 -20 50 -11 25 -29 65 -40 90 -11 25 -20 49 -20 53 0 5 -6 22
-14 38 -8 16 -37 88 -66 159 -28 72 -55 139 -60 150 -15 36 -82 208 -110 285
-16 41 -41 107 -55 145 -47 124 -87 229 -95 255 -5 14 -23 63 -40 110 -79 210
-344 973 -357 1025 -2 11 -8 29 -13 40 -4 11 -18 53 -31 94 l-23 73 -76 35
c-139 64 -274 120 -411 171 -151 56 -195 69 -187 56z"/>
<path d="M2515 9311 c-72 -44 -175 -110 -230 -148 l-100 -69 -12 -75 c-17 -97
-36 -244 -78 -579 -19 -151 -39 -313 -45 -360 -6 -47 -15 -120 -21 -162 -5
-43 -13 -113 -19 -155 -5 -43 -12 -98 -15 -123 -3 -25 -19 -157 -35 -295 -17
-137 -33 -270 -36 -295 -3 -25 -9 -79 -14 -120 -24 -187 -67 -599 -75 -720 -3
-36 -9 -112 -15 -170 -41 -444 -40 -897 1 -1380 18 -213 27 -303 69 -675 6
-49 26 -216 46 -370 19 -154 39 -314 44 -355 24 -197 41 -331 50 -395 6 -38
19 -137 30 -220 27 -198 35 -251 76 -505 39 -239 47 -283 83 -440 80 -348 140
-527 261 -765 l55 -110 75 -44 c203 -119 490 -253 755 -353 124 -47 482 -158
510 -158 9 0 -2 46 -37 153 -28 83 -54 166 -59 182 -4 17 -16 59 -28 95 -83
270 -128 428 -207 740 -137 536 -281 936 -479 1330 -34 69 -73 143 -85 165
-13 22 -34 60 -48 85 -14 25 -109 191 -212 370 -103 179 -195 339 -204 357
-15 29 -16 157 -16 1491 0 803 4 1549 10 1658 5 109 12 300 15 424 3 124 7
263 10 310 3 47 10 189 16 315 10 229 35 636 44 731 2 27 14 144 25 259 11
116 25 262 31 325 6 63 13 118 15 122 15 23 -36 0 -151 -71z"/>
<path d="M7555 9353 c12 -33 66 -186 116 -333 27 -80 54 -153 59 -162 6 -10
10 -26 10 -36 0 -10 4 -22 8 -27 4 -6 14 -28 21 -50 7 -22 21 -62 31 -90 10
-27 40 -108 65 -180 52 -145 112 -304 155 -410 15 -38 31 -78 34 -87 7 -24 26
-23 26 1 0 18 -31 225 -51 341 -5 30 -13 82 -18 115 -14 91 -40 231 -57 315
-9 41 -24 113 -34 160 -10 47 -25 121 -35 165 -9 44 -22 89 -30 100 -11 18
-285 195 -301 195 -3 0 -3 -8 1 -17z"/>
<path d="M8124 8971 c3 -4 13 -46 22 -92 61 -323 101 -481 178 -711 74 -222
164 -461 217 -575 10 -24 19 -45 19 -48 0 -2 27 -66 61 -142 70 -161 68 -157
152 -338 35 -77 76 -165 90 -195 14 -30 51 -109 82 -175 92 -193 117 -247 267
-585 37 -82 46 -104 108 -260 67 -168 146 -384 160 -440 5 -19 20 -75 34 -125
29 -107 62 -267 71 -347 4 -32 11 -60 16 -63 12 -8 12 -555 0 -555 -5 0 -12
-28 -16 -62 -15 -149 -50 -375 -85 -553 -35 -184 -129 -522 -217 -785 -14 -41
-29 -88 -33 -105 -18 -67 -163 -470 -274 -759 -15 -38 -25 -70 -23 -72 2 -2
47 53 99 123 364 487 626 1014 794 1597 427 1478 136 3090 -780 4321 -214 287
-542 635 -800 848 -115 95 -159 125 -142 98z"/>
<path d="M1844 8823 c-43 -37 -116 -104 -161 -148 -65 -63 -83 -86 -83 -108 0
-16 -9 -79 -19 -140 -24 -138 -74 -471 -96 -632 -8 -66 -20 -149 -25 -185 -9
-57 -27 -207 -60 -492 -12 -101 -24 -219 -40 -368 -6 -58 -13 -123 -16 -145
-13 -118 -46 -475 -59 -650 -8 -110 -17 -209 -20 -220 -7 -33 -20 -458 -20
-665 0 -181 10 -573 19 -735 33 -590 65 -1096 81 -1296 21 -261 27 -322 35
-382 6 -37 10 -86 10 -109 0 -22 4 -68 10 -102 5 -33 14 -98 20 -144 25 -196
34 -259 73 -462 l40 -215 51 -54 c112 -118 530 -480 543 -468 1 2 -6 35 -17
73 -23 76 -61 244 -79 344 -7 36 -16 88 -21 115 -10 47 -74 441 -105 645 -9
52 -20 120 -25 150 -14 80 -39 248 -60 395 -7 44 -15 103 -20 130 -32 187
-112 846 -140 1140 -11 121 -25 270 -30 330 -14 146 -16 199 -30 607 -13 401
-2 843 29 1148 6 52 15 145 21 205 49 504 107 1037 160 1485 6 52 16 133 21
180 15 137 25 228 64 539 19 162 34 295 32 297 -2 2 -39 -26 -83 -63z"/>
<path d="M1228 8184 c-644 -798 -1019 -1763 -1088 -2799 -63 -948 166 -1933
641 -2765 136 -240 447 -682 457 -652 2 7 -5 67 -16 134 -32 191 -52 343 -72
538 -6 58 -12 125 -15 150 -22 211 -48 609 -61 918 -3 89 -10 162 -15 162 -5
0 -9 329 -9 735 0 430 4 735 9 735 5 0 12 75 15 168 10 235 35 693 46 847 6
72 13 166 16 210 2 44 7 96 10 115 3 19 10 85 15 145 13 169 23 260 78 745 32
274 63 513 82 636 6 40 10 77 7 84 -2 7 -47 -41 -100 -106z"/>
<path d="M8154 7745 c19 -108 172 -498 359 -915 90 -201 115 -257 144 -320 43
-93 351 -712 380 -765 91 -162 168 -275 189 -275 28 0 15 37 -91 265 -20 44
-47 103 -60 130 -13 28 -36 79 -53 115 -53 115 -89 193 -121 263 -17 37 -44
96 -61 132 -79 171 -94 203 -115 250 -36 82 -65 144 -116 253 -27 57 -49 105
-49 107 0 7 -156 331 -244 505 -109 217 -132 260 -153 280 -14 13 -15 11 -9
-25z"/>
<path d="M9384 5009 c-14 -22 -11 -476 3 -490 20 -20 28 55 28 266 -1 195 -9
258 -31 224z"/>
<path d="M9284 4124 c-8 -42 0 -252 10 -261 28 -29 48 148 27 243 -14 63 -27
69 -37 18z"/>
<path d="M9244 3537 c-6 -12 -38 -76 -71 -143 -34 -66 -71 -142 -83 -170 -12
-27 -32 -71 -45 -99 -65 -143 -82 -181 -137 -305 -61 -139 -75 -170 -101 -230
-15 -34 -145 -332 -173 -397 -28 -66 -47 -109 -60 -138 -7 -16 -50 -115 -95
-220 -44 -104 -89 -208 -99 -230 -10 -22 -37 -85 -60 -140 -23 -55 -54 -124
-67 -153 -13 -30 -23 -56 -21 -58 5 -5 154 123 236 203 l69 68 81 205 c71 180
150 386 213 558 10 28 28 76 38 105 103 278 157 427 177 487 8 25 19 54 24 65
8 17 66 185 140 405 32 98 60 189 60 200 0 18 -15 11 -26 -13z"/>
</g>
</svg>
