<!DOCTYPE svg PUBLIC "-//W3C//DTD SVG 20010904//EN" "http://www.w3.org/TR/2001/REC-SVG-20010904/DTD/svg10.dtd">
<svg version="1.0" xmlns="http://www.w3.org/2000/svg" width="1200px" height="287px" viewBox="0 0 12000 2870" preserveAspectRatio="xMidYMid meet">
<g id="layer101" fill="#0c0c0c" stroke="none">
 <path d="M4798 2307 c-47 -89 -110 -195 -140 -235 -115 -157 -116 -159 -138 -254 -34 -144 -39 -418 -11 -653 21 -187 31 -226 100 -383 30 -70 58 -115 113 -179 40 -47 92 -111 116 -142 24 -30 50 -60 59 -64 22 -13 77 -2 103 20 104 88 271 407 304 582 11 62 34 123 87 235 80 169 90 215 69 333 -18 108 -113 344 -197 493 -42 74 -87 154 -100 177 -27 48 -135 189 -165 216 -13 11 -36 17 -67 17 l-46 0 -87 -163z m177 135 c20 -13 167 -206 176 -229 5 -13 44 -85 87 -160 48 -84 99 -191 130 -273 92 -246 84 -244 -23 5 -103 239 -113 258 -219 414 -98 145 -170 231 -192 231 -19 0 -44 -42 -110 -190 -33 -73 -85 -165 -125 -223 -91 -129 -86 -119 -108 -254 -33 -198 -44 -332 -37 -433 6 -85 38 -361 52 -450 4 -25 2 -31 -4 -20 -29 44 -52 153 -73 335 -20 182 -21 216 -11 385 14 241 34 316 113 415 80 100 106 142 193 308 75 143 78 147 109 147 18 0 37 -4 42 -8z m0 -81 c62 -65 213 -291 259 -386 24 -49 73 -160 109 -245 62 -145 66 -160 68 -237 2 -79 0 -83 -45 -166 -49 -90 -128 -295 -180 -467 -64 -212 -238 -437 -281 -364 -25 43 -106 144 -168 212 -101 109 -101 109 -141 437 -28 228 -28 262 -6 440 34 275 38 288 122 407 48 69 96 155 142 256 39 84 73 152 77 152 4 0 24 -17 44 -39z m462 -828 c-3 -10 -5 -4 -5 12 0 17 2 24 5 18 2 -7 2 -21 0 -30z m10 -100 c-2 -16 -4 -3 -4 27 0 30 2 43 4 28 2 -16 2 -40 0 -55z m-20 -60 c-2 -5 -30 -65 -62 -135 -32 -71 -60 -126 -62 -125 -9 10 109 267 123 267 3 0 3 -3 1 -7z m-143 -353 c-8 -41 -19 -91 -25 -110 -23 -70 -139 -303 -183 -364 -46 -64 -118 -136 -137 -136 -23 0 -49 22 -86 72 -21 29 -68 86 -105 128 -63 69 -126 175 -113 188 3 3 5 0 5 -6 0 -6 39 -56 86 -109 98 -111 142 -168 155 -201 10 -27 57 -30 97 -6 67 40 179 215 217 339 34 108 97 287 100 283 2 -2 -4 -37 -11 -78z"/>
 <path d="M4962 2223 c-24 -10 -101 -129 -131 -205 -17 -42 -42 -123 -56 -180 -18 -72 -40 -127 -72 -183 l-46 -80 -1 -215 c-1 -118 5 -284 13 -368 13 -137 17 -158 42 -197 47 -74 187 -163 224 -143 64 35 167 171 210 277 14 32 55 121 93 198 37 76 81 174 96 218 43 120 36 181 -47 410 -35 99 -74 210 -86 246 -33 100 -89 166 -178 213 -33 17 -40 18 -61 9z m66 -37 c45 -24 109 -98 136 -156 14 -30 26 -61 26 -67 0 -7 31 -99 70 -205 87 -241 94 -291 55 -398 -15 -41 -57 -136 -92 -210 -36 -74 -87 -181 -114 -238 -39 -80 -64 -118 -119 -175 l-69 -72 -43 24 c-79 43 -116 72 -143 113 -24 36 -29 57 -40 187 -16 176 -21 296 -17 456 l2 121 44 74 c31 53 52 106 71 178 43 171 88 277 151 351 29 35 43 37 82 17z"/>
 <path d="M4968 1938 c-8 -13 -25 -43 -38 -68 -12 -25 -60 -106 -105 -180 -46 -74 -89 -156 -95 -181 -14 -56 -10 -137 14 -284 26 -161 31 -176 84 -246 37 -51 53 -65 77 -67 27 -2 35 5 80 70 27 40 68 93 91 118 60 64 100 135 135 236 26 73 31 103 30 169 -1 44 -6 96 -13 115 -20 62 -159 320 -178 330 -32 17 -67 11 -82 -12z m66 -4 c14 -6 38 -48 154 -278 37 -74 42 -191 12 -282 -33 -100 -82 -190 -143 -260 -29 -33 -63 -73 -75 -90 l-23 -29 6 45 c4 25 15 56 26 70 96 126 169 232 182 268 35 89 12 230 -64 390 -70 147 -95 148 -129 2 -25 -110 -61 -207 -111 -305 l-51 -100 5 -95 c4 -79 10 -106 36 -160 17 -36 31 -74 31 -85 0 -33 16 -48 44 -43 l25 5 -20 -28 c-11 -16 -27 -29 -34 -29 -22 0 -115 139 -115 171 0 16 -12 89 -26 161 -24 116 -26 142 -17 204 9 64 18 84 101 215 49 79 103 170 118 202 28 56 37 63 68 51z m64 -199 c30 -63 52 -123 50 -133 -3 -11 -13 1 -28 36 -26 54 -45 68 -80 57 -45 -14 -140 -283 -140 -395 0 -36 54 -110 81 -110 31 0 79 53 79 87 0 15 16 58 34 95 22 43 37 89 42 127 8 69 19 72 28 6 11 -71 -14 -137 -91 -245 -37 -53 -78 -105 -90 -117 -12 -12 -27 -41 -33 -65 -23 -84 -26 -86 -39 -33 -7 26 -23 67 -36 89 -17 30 -25 64 -30 129 l-7 87 61 123 c42 85 70 158 92 242 33 126 36 135 47 135 4 0 31 -52 60 -115z m1 -111 c28 -61 20 -147 -20 -226 -16 -31 -33 -78 -39 -104 -13 -55 -25 -74 -49 -74 -19 0 -54 35 -65 64 -11 32 25 186 67 289 35 82 44 97 63 97 18 0 28 -11 43 -46z"/>
 <path d="M1760 1871 c-77 -24 -132 -75 -150 -139 -5 -20 -10 -134 -10 -252 0 -230 6 -272 47 -320 47 -56 96 -74 216 -78 l107 -4 0 25 c0 25 0 25 -109 29 -118 3 -141 12 -185 72 -20 26 -21 41 -21 276 0 235 1 250 21 276 44 60 67 69 185 72 108 4 109 4 109 28 0 24 -1 24 -92 23 -51 0 -104 -4 -118 -8z"/>
 <path d="M2410 1485 l0 -395 25 0 25 0 0 370 0 370 160 0 160 0 0 25 0 25 -185 0 -185 0 0 -395z"/>
 <path d="M7530 1480 l0 -400 185 0 185 0 0 25 0 25 -160 0 -160 0 0 140 0 140 120 0 120 0 0 25 0 25 -120 0 -120 0 0 185 0 185 160 0 160 0 0 25 0 25 -185 0 -185 0 0 -400z"/>
 <path d="M8507 1866 c-59 -22 -107 -64 -133 -120 -23 -49 -24 -60 -24 -266 0 -206 1 -217 24 -267 41 -87 140 -142 233 -129 89 12 171 77 193 153 13 43 9 464 -4 499 -6 17 2 28 49 63 54 41 56 44 39 62 -16 18 -18 17 -66 -23 -35 -29 -54 -39 -63 -32 -98 72 -166 89 -248 60z m140 -47 c15 -6 38 -20 51 -32 l23 -22 -41 -35 c-37 -32 -40 -37 -27 -54 14 -19 16 -19 53 12 26 22 41 29 49 21 15 -15 19 -385 5 -438 -14 -53 -70 -116 -117 -132 -56 -18 -128 -7 -171 28 -70 56 -73 70 -70 324 l3 226 28 36 c51 67 140 94 214 66z"/>
 <path d="M9408 1868 c-47 -12 -113 -69 -138 -119 -19 -36 -20 -60 -20 -349 0 -303 0 -310 20 -310 20 0 20 7 20 293 0 262 2 296 19 332 64 143 263 150 330 13 20 -42 21 -59 21 -341 l0 -297 26 0 25 0 -3 313 c-3 347 -2 341 -74 411 -59 57 -141 77 -226 54z"/>
 <path d="M10145 1867 c-3 -6 -4 -185 -3 -397 l3 -385 188 -3 187 -2 0 25 0 25 -165 0 -165 0 0 145 0 145 120 0 c113 0 120 1 120 20 0 19 -7 20 -120 20 l-120 0 0 185 0 185 165 0 165 0 0 25 0 25 -185 0 c-140 0 -187 -3 -190 -13z"/>
 <path d="M3230 1480 c0 -383 0 -390 20 -390 20 0 20 7 20 390 0 383 0 390 -20 390 -20 0 -20 -7 -20 -390z"/>
 <path d="M3920 1500 l0 -370 -100 0 -100 0 0 -25 0 -25 220 0 220 0 0 25 0 25 -100 0 -100 0 0 370 c0 363 0 370 -20 370 -20 0 -20 -7 -20 -370z"/>
 <path d="M5950 1500 l0 -370 -105 0 -105 0 0 -25 0 -25 225 0 225 0 0 25 0 25 -100 0 -100 0 0 370 c0 363 0 370 -20 370 -20 0 -20 -7 -20 -370z"/>
 <path d="M6640 1480 c0 -383 0 -390 20 -390 19 0 20 7 20 160 l0 160 185 0 185 0 0 -160 0 -160 25 0 25 0 0 390 0 390 -25 0 -25 0 0 -205 0 -205 -185 0 -185 0 0 205 c0 198 -1 205 -20 205 -20 0 -20 -7 -20 -390z"/>
 <path d="M7708 854 c-49 -37 -88 -73 -88 -80 0 -35 34 -23 117 42 49 37 90 69 92 71 5 3 -20 33 -28 33 -3 0 -45 -30 -93 -66z"/>
 </g>

</svg>